<svg width="12" height="14" viewBox="0 0 12 14" fill="none" xmlns="http://www.w3.org/2000/svg">
<path d="M9.56505 10.4381H2.4338C1.4239 10.4381 0.559443 9.66514 0.465185 8.67947C0.424789 8.25936 0.519048 7.84732 0.73584 7.48779C1.03746 6.98688 1.19095 6.50482 1.19095 6.05508V5.39258C1.19095 4.0824 1.70803 2.8584 2.64657 1.94545C3.58914 1.02846 4.82794 0.546402 6.13543 0.585451C8.71135 0.655471 10.8079 2.84628 10.8079 5.46799V6.05508C10.8079 6.50482 10.9614 6.98688 11.263 7.48779C11.4798 7.84732 11.5727 8.25936 11.5337 8.67947C11.4394 9.66514 10.575 10.4381 9.56505 10.4381ZM5.98733 1.65999C5.01513 1.65999 4.10083 2.03298 3.39659 2.71702C2.66812 3.42529 2.26683 4.37595 2.26683 5.39124V6.05373C2.26683 6.70276 2.06216 7.37199 1.65685 8.04256C1.5599 8.2028 1.51817 8.38728 1.53702 8.57579C1.57876 9.01476 1.97329 9.35948 2.4338 9.35948H9.56505C10.0256 9.35948 10.4201 9.01476 10.4619 8.57579C10.4794 8.38728 10.4376 8.2028 10.342 8.04256C9.9367 7.37199 9.73202 6.70276 9.73202 6.05373V5.46664C9.73202 3.42395 8.10541 1.71654 6.10581 1.66133C6.06541 1.65999 6.02638 1.65999 5.98733 1.65999Z" fill="white"/>
<path d="M5.99852 13.417C4.91187 13.417 3.94373 12.7262 3.59093 11.6988C3.49398 11.4174 3.64479 11.1117 3.92487 11.0147C4.2063 10.9178 4.51197 11.0686 4.60892 11.35C4.81225 11.9425 5.36969 12.3411 5.99717 12.3411C6.62466 12.3411 7.18213 11.9425 7.38546 11.35C7.48241 11.0686 7.78808 10.9191 8.06951 11.0147C8.35094 11.1117 8.5004 11.4174 8.4048 11.6988C8.052 12.7262 7.08518 13.417 5.99852 13.417Z" fill="white"/>
</svg>
